<svg width="120" height="120" viewBox="0 0 120 120" fill="none" xmlns="http://www.w3.org/2000/svg">
<circle cx="60" cy="60" r="60" fill="#456AA5"/>
<g clip-path="url(#clip0_68:188)">
<path d="M88.6061 50.4653V48.6086C88.6061 32.5198 75.588 19.5 59.4975 19.5C43.4469 19.5 30.3889 32.5581 30.3889 48.6086V50.4653C24.0042 52.2758 19.1269 58.3729 19.5225 65.7433C19.95 73.709 26.6323 79.9403 34.4949 79.9403C38.3696 79.9403 41.5112 76.8131 41.5112 72.936V56.8989C41.5112 53.2287 38.6808 50.2027 35.0944 49.9193V48.6088C35.0944 35.1529 46.0416 24.2057 59.4975 24.2057C72.9856 24.2057 83.9005 35.1192 83.9005 48.6088V49.9188C80.3182 50.1985 77.4837 53.2262 77.4837 56.899V72.9362C77.4837 76.6059 80.3012 79.612 83.9005 79.9138C83.9005 86.2819 78.914 90.711 73.3208 90.711H68.1993C67.258 88.3257 64.9318 86.6328 62.216 86.6328H56.7786C53.2326 86.6328 50.3476 89.5178 50.3476 93.0638C50.3476 96.6097 53.2326 99.4947 56.7786 99.4947H62.216C64.9318 99.4947 67.258 97.8018 68.1993 95.4165H73.3207C81.749 95.4165 88.6059 88.559 88.6059 80.1297V79.3582C94.6094 77.6278 99.1244 72.228 99.4723 65.7434C99.8666 58.3984 95.013 52.2824 88.6061 50.4653ZM36.8057 56.8989V72.936C36.8057 74.1247 35.8919 75.2628 34.3131 75.2328C28.9416 75.1274 24.5086 70.8483 24.2211 65.4912C23.901 59.5285 28.6236 54.601 34.5218 54.601H34.5621C35.7992 54.6057 36.8057 55.6365 36.8057 56.8989ZM62.2162 94.789H56.7787C55.8274 94.789 55.0534 94.0149 55.0534 93.0636C55.0534 92.1123 55.8274 91.3382 56.7787 91.3382H62.2162C63.169 91.3382 63.9437 92.1148 63.9414 93.0681C63.9387 94.0174 63.1659 94.789 62.2162 94.789ZM94.7736 65.4912C94.4861 70.8483 90.0532 75.1274 84.6818 75.2328C83.1319 75.2642 82.1891 74.1501 82.1891 72.936V56.8989C82.1891 55.6365 83.1956 54.6057 84.4238 54.601H84.4728C90.3719 54.601 95.0938 59.5291 94.7736 65.4912Z" fill="#F3F2F1"/>
<path d="M61.1301 72.1464L71.9945 61.2822C75.3789 57.8978 75.3792 52.42 71.9945 49.0355C68.8813 45.9221 63.4864 45.298 59.4665 49.3165C55.5013 45.3524 50.0989 45.8751 46.9386 49.0353C43.5541 52.4199 43.5539 57.8975 46.9386 61.2822L57.803 72.1464C58.7215 73.065 60.2113 73.0652 61.1301 72.1464ZM50.2658 52.3626C51.8075 50.8211 54.316 50.8209 55.8579 52.3626L57.8027 54.3074C58.7213 55.2263 60.2111 55.2263 61.13 54.3074L63.0748 52.3626C64.6166 50.8209 67.125 50.8208 68.6669 52.3626C70.2122 53.9078 70.2125 56.4091 68.6669 57.9547L59.4662 67.1552L50.2656 57.9547C48.7205 56.4096 48.7203 53.9082 50.2658 52.3626Z" fill="#F3F2F1"/>
</g>
<defs>
<clipPath id="clip0_68:188">
<rect width="79.995" height="79.995" fill="white" transform="translate(19.5 19.5)"/>
</clipPath>
</defs>
</svg>
