<svg width="120" height="120" viewBox="0 0 120 120" fill="none" xmlns="http://www.w3.org/2000/svg">
<circle cx="60" cy="60" r="60" fill="#456AA5"/>
<g clip-path="url(#clip0_68:177)">
<path d="M85.9304 20.3999H34.8703C31.3353 20.3999 28.4648 23.2737 28.4648 26.8086V93.9985C28.4648 97.5334 31.3353 100.404 34.8703 100.404H85.9271C89.4588 100.404 92.3358 97.5334 92.3358 93.9985V26.8086C92.3391 23.2737 89.462 20.3999 85.9304 20.3999ZM87.9859 93.9985C87.9859 95.1375 87.0596 96.0572 85.9271 96.0572H34.8703C33.7378 96.0572 32.8148 95.1375 32.8148 93.9985V26.8086C32.8148 25.6728 33.7378 24.7498 34.8703 24.7498H85.9271C87.0596 24.7498 87.9859 25.6728 87.9859 26.8086V93.9985ZM39.8781 30.6316H80.9193V36.6115H39.8781V30.6316ZM65.4278 50.3486H39.8781V46.6271H65.4278V50.3486ZM65.4278 58.6786H39.8781V54.9539H65.4278V58.6786ZM65.4278 66.7337H39.8781V63.0122H65.4278V66.7337ZM65.4278 74.8444H39.8781V71.1229H65.4278V74.8444ZM39.8781 78.4382H80.9193V82.1597H39.8781V78.4382ZM68.4161 74.8444H80.9193V46.6566H68.4161C68.4194 46.6566 68.4194 74.8444 68.4161 74.8444ZM70.596 48.8299H78.746V72.6711H70.596V48.8299Z" fill="#F3F2F1"/>
</g>
<defs>
<clipPath id="clip0_68:177">
<rect width="80.004" height="80.004" fill="white" transform="translate(20.4001 20.3999)"/>
</clipPath>
</defs>
</svg>
